<?xml version="1.0" standalone="no"?>
<!DOCTYPE svg PUBLIC "-//W3C//DTD SVG 20010904//EN"
 "http://www.w3.org/TR/2001/REC-SVG-20010904/DTD/svg10.dtd">
<svg version="1.0" xmlns="http://www.w3.org/2000/svg"
 width="16.000000pt" height="16.000000pt" viewBox="0 0 16.000000 16.000000"
 preserveAspectRatio="xMidYMid meet">
<metadata>
Created by potrace 1.11, written by Peter Selinger 2001-2013
</metadata>
<g transform="translate(0.000000,16.000000) scale(0.006250,-0.006250)"
fill="#000000" stroke="none">
<path d="M1218 2285 c-2 -2 -30 -5 -64 -9 -385 -40 -735 -341 -843 -727 -52
-185 -46 -416 16 -598 21 -62 84 -195 94 -199 5 -2 9 -11 9 -20 0 -10 9 -23
20 -30 11 -7 20 -17 20 -22 0 -12 24 -42 78 -97 23 -24 39 -43 35 -43 -4 0 4
-8 17 -17 14 -10 28 -17 33 -15 4 1 7 -2 7 -6 0 -5 7 -17 16 -28 8 -10 13 -12
9 -4 -4 8 2 5 13 -7 11 -12 22 -19 26 -16 3 4 6 1 6 -5 0 -7 7 -12 15 -12 7 0
19 -8 24 -17 6 -10 11 -14 11 -9 0 5 9 1 21 -10 12 -10 24 -19 28 -19 3 0 5
-3 4 -6 -1 -3 5 -6 13 -7 7 -1 21 -3 29 -4 8 -1 15 -5 15 -10 0 -5 4 -6 10 -3
5 3 10 1 10 -4 0 -6 9 -11 20 -11 11 0 20 -4 20 -9 0 -5 12 -8 27 -8 15 0 29
-6 31 -12 3 -9 8 -8 20 1 9 8 13 8 9 2 -10 -16 18 -25 33 -11 10 9 11 9 6 0
-3 -6 -2 -14 4 -18 5 -3 10 0 10 7 0 9 3 9 8 2 4 -6 17 -10 30 -9 12 1 22 -2
22 -7 0 -4 5 -8 11 -8 5 0 8 4 4 10 -3 5 7 3 22 -5 19 -10 31 -11 40 -3 9 7
17 7 26 -1 8 -6 17 -8 20 -5 10 11 58 13 51 3 -3 -5 -1 -9 5 -9 5 0 13 5 16
10 5 8 12 7 23 -2 12 -10 14 -10 8 0 -4 6 -2 12 3 12 6 0 11 -4 11 -10 0 -5 5
-10 11 -10 5 0 7 5 3 12 -4 7 -3 8 5 4 6 -4 19 -2 28 6 12 9 15 9 9 1 -10 -18
12 -16 31 2 12 12 18 13 29 4 11 -9 18 -8 29 1 8 7 15 9 15 4 0 -4 7 1 15 12
15 19 15 19 8 -1 -7 -19 -6 -20 20 -2 15 9 27 14 27 11 0 -4 8 1 19 10 10 9
22 16 27 15 26 -5 45 2 38 14 -5 7 0 6 11 -3 10 -8 16 -10 12 -4 -4 8 8 18 33
28 22 9 40 21 40 28 0 10 2 10 9 0 7 -11 9 -10 15 3 3 9 11 13 18 9 8 -5 9 -2
5 9 -4 12 -2 14 10 10 11 -4 14 -2 9 5 -5 8 -2 10 8 6 9 -3 16 -1 16 6 0 6 5
8 10 5 9 -6 14 8 11 28 -1 4 8 3 19 -3 16 -9 19 -8 13 7 -5 13 -3 15 11 10 9
-4 15 -3 12 2 -3 5 2 17 12 28 9 10 13 12 7 4 -6 -10 0 -8 16 4 25 19 31 43 7
29 -6 -4 -8 -2 -4 4 3 6 15 9 26 7 14 -3 17 1 13 12 -4 9 -2 14 3 11 5 -2 20
7 34 20 14 14 20 22 13 18 -6 -3 -15 -1 -19 5 -4 7 -3 9 4 5 14 -8 44 22 36
36 -4 6 -2 8 3 5 6 -4 17 1 24 10 8 9 9 14 2 10 -8 -5 -9 0 -5 15 3 12 7 17
10 10 2 -7 8 -10 12 -7 5 3 7 12 3 20 -4 11 -1 13 12 9 15 -6 16 -4 5 17 -12
21 -11 23 2 11 13 -10 15 -9 13 12 -2 18 1 23 11 19 10 -3 12 0 9 10 -4 8 1
21 9 30 8 8 12 18 8 22 -4 3 1 11 11 16 9 6 15 15 11 20 -3 5 0 17 8 26 10 13
10 15 0 9 -7 -4 -3 9 8 29 11 20 16 34 10 30 -15 -9 -12 2 6 19 8 9 10 16 4
16 -8 0 -8 6 0 20 6 11 8 20 4 20 -3 0 1 11 10 24 10 16 12 27 6 31 -7 4 -6
13 0 26 8 14 7 19 -2 19 -9 0 -10 3 -2 8 7 5 10 41 7 107 -2 55 -4 115 -5 133
0 17 -4 32 -8 32 -3 0 -7 6 -7 13 0 24 -26 123 -40 150 -7 15 -11 32 -8 36 3
5 2 11 -2 13 -5 1 -26 37 -47 78 -172 330 -497 532 -875 544 -44 1 -82 2 -83
1z m436 -571 c5 -14 4 -15 -9 -4 -17 14 -19 20 -6 20 5 0 12 -7 15 -16z m30
-22 c3 -5 -1 -9 -9 -9 -8 0 -12 4 -9 9 3 4 7 8 9 8 2 0 6 -4 9 -8z m50 -70 c3
-5 -1 -9 -9 -9 -8 0 -12 4 -9 9 3 4 7 8 9 8 2 0 6 -4 9 -8z m40 -41 c3 -4 -4
-7 -14 -6 -27 2 -33 10 -10 12 11 1 22 -2 24 -6z m-432 -20 c3 8 10 0 18 -18
15 -33 55 -60 64 -42 2 5 3 4 2 -3 -2 -7 -10 -12 -17 -10 -11 3 -11 1 -2 -9 9
-9 15 -8 27 3 8 9 13 18 11 20 -3 3 2 5 10 5 8 0 12 -4 9 -9 -3 -4 3 -8 13 -8
10 0 14 -3 8 -8 -6 -4 -11 -15 -12 -24 0 -10 -1 -22 -2 -28 -1 -13 -41 -13
-61 0 -15 9 -16 13 -19 49 -1 18 -2 18 -38 0 l-37 -19 -21 26 -21 27 25 27
c14 15 29 22 32 17 4 -5 9 -3 11 4z m-127 -21 c-3 -4 3 -6 14 -3 24 6 36 -24
16 -43 -8 -9 -15 -18 -15 -22 0 -3 5 -1 12 6 7 7 17 12 23 12 5 0 -3 -9 -19
-19 -23 -15 -34 -17 -49 -9 -17 9 -19 8 -14 -6 4 -10 3 -15 -3 -11 -6 3 -10
13 -10 21 0 8 -5 14 -11 14 -6 0 0 15 12 33 l23 32 -23 -19 c-16 -15 -20 -16
-16 -4 3 8 16 20 28 25 23 11 41 7 32 -7z m619 -92 c3 -15 3 -29 -1 -31 -5 -3
-9 5 -9 18 -1 13 -9 38 -18 56 -9 18 -16 37 -16 43 1 16 36 -54 44 -86z m-744
22 c13 7 21 7 26 -1 4 -8 9 -7 15 2 7 11 9 11 9 1 0 -8 5 -10 13 -6 10 6 10 4
0 -7 -7 -7 -13 -26 -13 -41 0 -15 -3 -28 -7 -29 -51 -5 -73 -16 -67 -34 3 -8
10 -12 15 -9 5 3 6 -3 2 -12 -5 -13 -3 -15 8 -9 10 7 8 1 -4 -18 -10 -15 -15
-32 -12 -38 4 -5 3 -9 -2 -8 -27 5 -30 -4 -9 -26 13 -14 28 -25 34 -25 8 0 10
-28 2 -37 -2 -2 -3 -7 -4 -12 0 -5 -4 -13 -9 -17 -10 -11 -47 -13 -41 -2 3 4
-4 8 -15 8 -11 0 -23 5 -26 10 -3 6 -1 10 6 10 8 0 7 5 -2 17 -8 9 -9 14 -3
10 13 -8 41 20 30 30 -3 3 -6 1 -6 -5 0 -7 -5 -12 -12 -12 -6 0 -4 7 6 18 15
18 15 21 -9 48 -21 24 -32 74 -15 72 3 0 17 0 31 1 28 1 30 11 16 93 -2 15 0
25 4 22 5 -3 9 1 10 8 0 10 2 10 6 1 3 -9 10 -10 23 -3z m410 -66 c-15 -17 -6
-18 21 -4 15 8 21 7 25 -5 3 -8 11 -12 17 -8 7 4 8 0 4 -11 -4 -10 -7 -22 -7
-27 0 -6 -4 -8 -9 -4 -5 3 -12 -3 -16 -14 -7 -23 -45 -36 -45 -15 0 8 -7 14
-16 14 -14 0 -14 3 -4 15 11 13 10 14 -4 9 -9 -3 -16 -2 -16 4 0 5 8 13 18 17
15 6 14 8 -8 21 -14 9 -17 13 -7 10 9 -3 17 -2 17 2 0 4 9 8 21 9 17 2 18 -1
9 -13z m70 -106 c0 -4 -4 -8 -9 -8 -6 0 -12 4 -15 8 -3 5 1 9 9 9 8 0 15 -4
15 -9z m6 -67 c-3 -5 0 -12 6 -14 7 -3 2 -6 -11 -6 -17 -1 -22 -5 -17 -17 6
-15 4 -15 -11 -3 -15 12 -16 12 -10 -5 7 -17 6 -17 -9 -5 -10 8 -18 12 -19 9
-1 -3 -9 3 -19 13 -13 12 -14 17 -4 18 10 0 10 2 1 6 -16 6 -17 33 -2 33 5 0
7 -5 3 -12 -4 -7 -3 -8 5 -4 6 4 8 12 5 18 -4 6 1 17 11 24 17 12 22 10 48
-16 16 -16 26 -34 23 -39z m278 -23 c-2 -18 -5 -38 -6 -45 -1 -7 -5 -10 -10
-7 -4 3 -3 14 2 24 6 11 10 23 9 27 -2 14 1 33 6 33 2 0 2 -15 -1 -32z m-384
-50 c0 7 5 10 10 7 6 -3 10 0 10 7 1 7 7 0 14 -17 7 -16 11 -33 9 -37 -2 -5 0
-8 5 -8 5 0 7 -11 4 -25 -4 -22 -7 -23 -26 -13 -20 10 -20 10 -6 -7 14 -17 14
-17 -16 -2 -17 9 -34 14 -37 11 -3 -3 -11 -3 -17 1 -9 6 -9 10 1 16 11 7 12
11 1 17 -10 7 -9 15 5 39 15 28 19 29 30 15 9 -12 12 -13 13 -4z m-366 -41
c-3 -7 2 -3 10 7 16 20 16 20 17 0 0 -10 3 -14 6 -7 3 10 7 10 18 0 7 -7 11
-15 9 -19 -2 -3 2 -13 11 -21 13 -13 12 -16 -8 -21 -39 -10 -75 -6 -81 9 -3 8
-1 15 5 15 6 0 6 6 1 18 -11 20 -5 45 9 36 5 -3 7 -11 3 -17z m-355 -37 c11
-24 11 -24 -3 -6 -9 11 -16 24 -16 30 0 12 5 7 19 -24z m528 -20 c7 0 13 -5
13 -11 0 -5 -3 -8 -7 -6 -5 3 -9 -6 -9 -19 -1 -13 2 -21 7 -18 5 3 9 0 9 -6 0
-7 -8 -9 -20 -5 -23 7 -26 -4 -7 -24 10 -11 9 -12 -3 -5 -8 5 -20 9 -26 10
-20 3 -51 39 -46 54 3 7 0 10 -7 6 -6 -4 -11 -3 -11 2 0 13 50 33 63 26 8 -5
8 -2 0 7 -22 23 -14 31 9 9 12 -11 28 -20 35 -20z m129 -11 c0 -14 6 -23 13
-21 7 1 10 -2 6 -8 -3 -6 -10 -8 -15 -5 -5 3 -15 -3 -22 -13 -14 -19 -31 -22
-45 -8 -5 5 -3 6 5 2 6 -4 12 -5 12 -1 0 7 -52 29 -64 26 -5 -1 -4 4 2 12 7 8
9 17 5 21 -4 4 0 4 10 0 12 -4 17 -1 17 10 0 12 7 15 25 12 15 -3 23 -1 20 5
-4 5 -11 6 -17 3 -7 -5 -8 -2 -4 5 12 19 51 -12 52 -40z m75 -56 c13 -17 13
-17 -6 -3 -11 8 -22 16 -24 17 -2 2 0 3 6 3 6 0 17 -8 24 -17z m300 -10 c-12
-20 -14 -14 -5 12 4 9 9 14 11 11 3 -2 0 -13 -6 -23z m-855 -155 l19 -23 -25
20 c-14 11 -27 21 -29 22 -2 2 0 3 6 3 5 0 18 -10 29 -22z"/>
<path d="M1005 1330 c-3 -6 1 -7 9 -4 18 7 21 14 7 14 -6 0 -13 -4 -16 -10z"/>
</g>
</svg>
